<svg width="1280" height="863" viewBox="0 0 1280 863" fill="none" xmlns="http://www.w3.org/2000/svg">
<g clip-path="url(#clip0_1013_3724)">
<rect width="1280" height="863" fill="url(#paint0_linear_1013_3724)"/>
<path d="M901.038 -95.9205C855.078 -7.33342 842.42 76.2849 850.697 153.153C895.619 242.229 969.247 315.911 1046.69 388.822C1024.04 350.796 1002.89 313.521 985.742 276.606L1133.32 316.149C1147.44 306.486 1160.83 296.56 1173.42 286.346L966.672 230.947C960.481 214.023 955.352 197.144 951.527 180.235C949.508 171.349 947.818 162.391 946.458 153.38L1230.91 229.6C1239.74 218.757 1247.75 207.487 1254.96 195.492L942.937 111.885C942.547 85.3943 945.792 58.1262 953.774 29.2131L1286.09 118.258C1288.96 106.12 1291.26 93.2387 1292.9 79.4598L966.393 -8.02667C974.301 -27.8091 984.369 -48.4879 997.013 -70.2062L901.038 -95.9205ZM1338.12 21.1954C1338.44 101.212 1322.08 158.897 1293.97 205.947L1293.66 205.862C1279.92 231.127 1263.2 253.518 1244.21 274.052C1196.25 325.935 1132.4 366.036 1063.69 404.771C1085.8 425.462 1108.04 446.18 1129.89 467.264C1198.17 428.778 1266.12 386.186 1321.78 325.962C1384.27 258.361 1428.76 168.132 1434.22 46.9444L1338.12 21.1954ZM939.433 465.119C886.777 497.038 835.556 533.509 791.416 581.021C726.428 650.969 679.672 746.282 671.005 873.09L763.316 897.825C765.143 850.25 773.448 807.569 786.773 769.574C791.751 754.703 797.489 740.751 803.983 727.601L804.297 727.685C810.258 715.579 816.894 703.817 824.173 692.455C824.26 692.326 824.329 692.182 824.417 692.049C835.422 674.903 847.872 658.729 861.632 643.704C907.485 593.648 962.037 559.203 1014.9 528.944C990.017 507.65 964.579 486.543 939.435 465.119L939.433 465.119ZM1023.54 536.414C1044.86 573.698 1064.11 610.638 1078.65 647.879L953.587 614.369C940.635 623.879 928.081 633.996 916.075 644.867L1093.62 692.439C1095.21 698.182 1096.67 703.975 1097.99 709.75C1102.37 728.906 1105.33 748.281 1106.54 768.119L864.004 703.132C856.341 714.055 849.269 725.696 842.798 738.006L1106.46 808.653C1104.76 834.614 1099.91 861.603 1091 890.086L813.635 815.765C810.63 828.088 808.147 840.942 806.279 854.346L1077.52 927.025C1070.98 942.766 1063.21 958.986 1054.16 975.761L1148.88 1001.14C1194.54 907.877 1207.65 820.114 1199.3 740.356C1159.03 660.457 1093.94 597.184 1023.54 536.418L1023.54 536.414Z" fill="white" fill-opacity="0.06"/>
</g>
<defs>
<linearGradient id="paint0_linear_1013_3724" x1="-44" y1="22.9776" x2="216.319" y2="829.493" gradientUnits="userSpaceOnUse">
<stop stop-color="#417CFF"/>
<stop offset="1" stop-color="#0039B6"/>
</linearGradient>
<clipPath id="clip0_1013_3724">
<rect width="1280" height="863" fill="white"/>
</clipPath>
</defs>
</svg>
