<svg xmlns="http://www.w3.org/2000/svg" fill="none" viewBox="3.954545454545454 0.9176000000000001 22.25206611570248 22.072" style="max-height: 500px" width="22.25206611570248" height="22.072">
<g filter="url(#filter0_d_267_1129)">
<path stroke-linejoin="round" stroke-linecap="round" stroke-width="2" stroke="white" d="M20 2H10C7.23858 2 5 4.23858 5 7V17C5 19.7614 7.23858 22 10 22H20C22.7614 22 25 19.7614 25 17V7C25 4.23858 22.7614 2 20 2Z"/>
<path stroke-linejoin="round" stroke-linecap="round" stroke-width="2" stroke="white" d="M19 11.3703C19.1234 12.2025 18.9813 13.0525 18.5938 13.7993C18.2063 14.5461 17.5932 15.1517 16.8416 15.53C16.0901 15.9082 15.2385 16.0399 14.4078 15.9062C13.5771 15.7726 12.8098 15.3804 12.2149 14.7855C11.6199 14.1905 11.2277 13.4232 11.0941 12.5925C10.9604 11.7619 11.0921 10.9102 11.4703 10.1587C11.8486 9.40716 12.4542 8.79404 13.201 8.40654C13.9478 8.01904 14.7978 7.87689 15.63 8.0003C16.4789 8.12619 17.2649 8.52176 17.8717 9.12861C18.4785 9.73545 18.8741 10.5214 19 11.3703Z"/>
<path stroke-linejoin="round" stroke-linecap="round" stroke-width="2" stroke="white" d="M20.5 6.5H20.51"/>
</g>
<defs>
<filter color-interpolation-filters="sRGB" filterUnits="userSpaceOnUse" height="32" width="32" y="0" x="-1" id="filter0_d_267_1129">
<feFlood result="BackgroundImageFix" flood-opacity="0"/>
<feColorMatrix result="hardAlpha" values="0 0 0 0 0 0 0 0 0 0 0 0 0 0 0 0 0 0 127 0" type="matrix" in="SourceAlpha"/>
<feOffset dy="4"/>
<feGaussianBlur stdDeviation="2"/>
<feComposite operator="out" in2="hardAlpha"/>
<feColorMatrix values="0 0 0 0 0 0 0 0 0 0 0 0 0 0 0 0 0 0 0.25 0" type="matrix"/>
<feBlend result="effect1_dropShadow_267_1129" in2="BackgroundImageFix" mode="normal"/>
<feBlend result="shape" in2="effect1_dropShadow_267_1129" in="SourceGraphic" mode="normal"/>
</filter>
</defs>
</svg>