<svg width="117" height="59" viewBox="0 0 117 59" fill="none" xmlns="http://www.w3.org/2000/svg">
<path d="M0 43.0264V41.0107C0 40.4648 0.188965 40.0029 0.566895 39.625C0.958822 39.2471 1.42773 39.0581 1.97363 39.0581H3.61133L7.5166 23.1641C8.87435 17.6491 13.4235 14.8916 21.1641 14.8916H32.502C33.0479 14.8916 33.5098 15.0806 33.8877 15.4585C34.2796 15.8364 34.4756 16.2983 34.4756 16.8442V43.0684C34.4756 43.6143 34.2796 44.0762 33.8877 44.4541C33.5098 44.818 33.0479 45 32.502 45H1.97363C1.42773 45 0.958822 44.811 0.566895 44.4331C0.188965 44.0412 0 43.5723 0 43.0264ZM11.6948 39.0581H26.5811V20.8335H20.3032C18.9735 20.8335 17.8747 21.1974 17.0068 21.9253C16.139 22.6532 15.5441 23.668 15.2222 24.9697L11.6948 39.0581Z" fill="white"/>
<path d="M44.5404 2.09972C43.3595 7.45812 43.8774 12.0788 45.4118 16.0431C49.0673 20.1342 54.029 22.9994 59.1823 25.7694C57.4372 24.0724 55.7829 22.3938 54.3459 20.6775H62.7511C63.3639 19.9634 63.9342 19.2457 64.458 18.5241H52.6824C52.1124 17.7134 51.5995 16.8901 51.1555 16.0465C50.9217 15.6034 50.7043 15.1517 50.5038 14.6925L66.705 14.6925C67.0196 13.9911 67.2849 13.2786 67.4973 12.539L49.7258 12.539C49.3279 11.1378 49.1121 9.64354 49.1245 7.99454L68.0518 7.99454C68.0315 7.30912 67.9702 6.59237 67.8609 5.83735L49.2649 5.83735C49.4034 4.67429 49.644 3.43287 50.0066 2.09961L44.5404 2.09972ZM69.4345 2.09972C70.5906 6.3445 70.5426 9.64066 69.7191 12.5392H69.7011C69.3306 14.0764 68.761 15.5033 68.0446 16.8639C66.2345 20.3017 63.4128 23.3397 60.3131 26.3744C61.7823 27.1587 63.2593 27.9424 64.7208 28.7511C67.801 25.7358 70.8052 22.5072 72.9059 18.5168C75.2639 14.0377 76.3433 8.613 74.9081 2.09961L69.4345 2.09972ZM54.5692 31.3474C52.2256 33.7917 50.023 36.4573 48.354 39.6085C45.8965 44.2478 44.769 49.9748 46.114 56.8322H51.3716C50.7913 54.2798 50.6249 51.895 50.792 49.6877C50.8447 48.8271 50.951 48.0046 51.1089 47.2139H51.1267C51.2711 46.4861 51.4563 45.7671 51.6813 45.0601C51.6841 45.0521 51.6857 45.0434 51.6885 45.0351C52.0292 43.968 52.4605 42.9319 52.9777 41.9382C54.7016 38.6275 57.11 36.0221 59.4885 33.6629C57.8629 32.8862 56.2105 32.1273 54.5694 31.3474H54.5692ZM60.0538 33.9367C61.7175 35.6133 63.2666 37.3011 64.5694 39.0719H57.4465C56.8936 39.7612 56.3706 40.4771 55.8874 41.2253H65.9992C66.1657 41.5076 66.3256 41.7945 66.478 42.0824C66.9837 43.0373 67.4168 44.0241 67.7635 45.0604H53.95C53.6983 45.7495 53.4882 46.4683 53.3196 47.2141H68.3363C68.6161 48.6168 68.7425 50.1192 68.6747 51.7585H52.8771C52.8929 52.4556 52.944 53.1736 53.0356 53.912H68.4841C68.3606 54.841 68.1788 55.8129 67.9368 56.8325H73.3312C74.4298 51.23 73.877 46.3828 72.2976 42.266C69.02 38.5961 64.6603 36.1621 60.0539 33.9369L60.0538 33.9367Z" fill="#50DFB8"/>
<path d="M116.979 44.0762C116.979 44.6921 116.615 45 115.887 45H111.079C110.533 45 109.945 44.811 109.315 44.4331C108.686 44.0412 108.196 43.5723 107.846 43.0264L104.15 37.1685C103.269 35.7407 102.38 34.6699 101.484 33.9561C100.588 33.2282 99.5103 32.8643 98.2505 32.8643H93.7363V43.0684C93.7363 43.6143 93.5404 44.0762 93.1484 44.4541C92.7705 44.818 92.3086 45 91.7627 45H87.8154C87.2695 45 86.8006 44.804 86.4087 44.4121C86.0168 44.0062 85.8208 43.5303 85.8208 42.9844V16.8862C85.8208 16.3403 86.0168 15.8644 86.4087 15.4585C86.8006 15.0526 87.2695 14.8496 87.8154 14.8496H91.7627C92.3086 14.8496 92.7705 15.0526 93.1484 15.4585C93.5404 15.8644 93.7363 16.3403 93.7363 16.8862V26.9434H98.2505C99.4823 26.9434 100.56 26.6074 101.484 25.9355C102.422 25.2637 103.311 24.1789 104.15 22.6812L107.405 16.8862C108.147 15.5425 109.154 14.8636 110.428 14.8496H115.278C115.95 14.8496 116.286 15.1436 116.286 15.7314C116.286 16.0534 116.167 16.4383 115.929 16.8862L111.373 25.1377C110.715 26.3415 109.973 27.3353 109.147 28.1191C108.336 28.903 107.272 29.4559 105.956 29.7778C106.88 29.9738 107.825 30.5547 108.791 31.5205C109.77 32.4863 110.631 33.5361 111.373 34.6699L116.622 43.0264C116.86 43.4323 116.979 43.7822 116.979 44.0762Z" fill="white"/>
</svg>
