<svg width="91" height="46" viewBox="0 0 91 46" fill="none" xmlns="http://www.w3.org/2000/svg">
<path d="M0 33.0312V31.5312C0 31.125 0.140625 30.7812 0.421875 30.5C0.713542 30.2188 1.0625 30.0781 1.46875 30.0781H2.6875L5.59375 18.25C6.60417 14.1458 9.98958 12.0938 15.75 12.0938H24.1875C24.5938 12.0938 24.9375 12.2344 25.2188 12.5156C25.5104 12.7969 25.6562 13.1406 25.6562 13.5469V33.0625C25.6562 33.4688 25.5104 33.8125 25.2188 34.0938C24.9375 34.3646 24.5938 34.5 24.1875 34.5H1.46875C1.0625 34.5 0.713542 34.3594 0.421875 34.0781C0.140625 33.7865 0 33.4375 0 33.0312ZM8.70312 30.0781H19.7812V16.5156H15.1094C14.1198 16.5156 13.3021 16.7865 12.6562 17.3281C12.0104 17.8698 11.5677 18.625 11.3281 19.5938L8.70312 30.0781Z" fill="white"/>
<path d="M34.4465 1.63681C33.5258 5.81454 33.9296 9.4171 35.1259 12.5079C37.9759 15.6976 41.8444 17.9315 45.8622 20.0912C44.5016 18.768 43.2118 17.4593 42.0915 16.1211H48.6447C49.1225 15.5644 49.5671 15.0048 49.9754 14.4422L40.7945 14.4422C40.3501 13.8102 39.9502 13.1683 39.604 12.5106C39.4218 12.1651 39.2523 11.8129 39.0959 11.4549L51.7274 11.4549C51.9727 10.9081 52.1795 10.3525 52.3451 9.77593L38.4894 9.77593C38.1791 8.68343 38.0108 7.51843 38.0206 6.23277L52.7774 6.23277C52.7616 5.69837 52.7138 5.13955 52.6286 4.55089L38.13 4.55089C38.238 3.6441 38.4256 2.67621 38.7083 1.63672L34.4465 1.63681ZM53.8554 1.63681C54.7568 4.94629 54.7194 7.51618 54.0773 9.77602H54.0633C53.7745 10.9745 53.3304 12.0871 52.7718 13.1479C51.3605 15.8282 49.1605 18.1968 46.7438 20.5628C47.8893 21.1743 49.0409 21.7853 50.1804 22.4159C52.5819 20.0649 54.9241 17.5477 56.562 14.4366C58.4004 10.9444 59.242 6.71496 58.123 1.63672L53.8554 1.63681ZM42.2656 24.4401C40.4383 26.3458 38.7211 28.4241 37.4198 30.8809C35.5038 34.4981 34.6247 38.9631 35.6734 44.3096H39.7725C39.3201 42.3196 39.1903 40.4603 39.3206 38.7393C39.3617 38.0684 39.4446 37.4271 39.5677 36.8105H39.5816C39.6942 36.2432 39.8386 35.6826 40.014 35.1314C40.0162 35.1251 40.0174 35.1183 40.0196 35.1119C40.2852 34.2798 40.6215 33.472 41.0247 32.6973C42.3688 30.1161 44.2465 28.0847 46.1009 26.2454C44.8335 25.6398 43.5452 25.0481 42.2657 24.4401H42.2656ZM46.5417 26.4588C47.8388 27.7661 49.0465 29.0819 50.0623 30.4625H44.5089C44.0778 31 43.67 31.5582 43.2933 32.1415H51.1771C51.3069 32.3616 51.4315 32.5853 51.5504 32.8097C51.9446 33.5542 52.2823 34.3236 52.5526 35.1315H41.7828C41.5865 35.6688 41.4228 36.2293 41.2913 36.8107H52.9992C53.2174 37.9044 53.3159 39.0757 53.2631 40.3538H40.9463C40.9586 40.8974 40.9984 41.4571 41.0698 42.0328H53.1145C53.0182 42.7571 52.8764 43.5149 52.6877 44.3098H56.8936C57.7501 39.9418 57.3191 36.1626 56.0877 32.9529C53.5323 30.0916 50.1332 28.1939 46.5418 26.459L46.5417 26.4588Z" fill="white"/>
<path d="M90.9844 33.8125C90.9844 34.2708 90.7135 34.5 90.1719 34.5H86.5938C86.1875 34.5 85.75 34.3594 85.2812 34.0781C84.8125 33.7865 84.4479 33.4375 84.1875 33.0312L81.4375 28.6719C80.7812 27.6094 80.1198 26.8125 79.4531 26.2812C78.7865 25.7396 77.9844 25.4688 77.0469 25.4688H73.6875V33.0625C73.6875 33.4688 73.5417 33.8125 73.25 34.0938C72.9688 34.3646 72.625 34.5 72.2188 34.5H69.2812C68.875 34.5 68.526 34.3542 68.2344 34.0625C67.9427 33.7604 67.7969 33.4062 67.7969 33V13.5781C67.7969 13.1719 67.9427 12.8177 68.2344 12.5156C68.526 12.2135 68.875 12.0625 69.2812 12.0625H72.2188C72.625 12.0625 72.9688 12.2135 73.25 12.5156C73.5417 12.8177 73.6875 13.1719 73.6875 13.5781V21.0625H77.0469C77.9635 21.0625 78.7656 20.8125 79.4531 20.3125C80.151 19.8125 80.8125 19.0052 81.4375 17.8906L83.8594 13.5781C84.4115 12.5781 85.1615 12.0729 86.1094 12.0625H89.7188C90.2188 12.0625 90.4688 12.2812 90.4688 12.7188C90.4688 12.9583 90.3802 13.2448 90.2031 13.5781L86.8125 19.7188C86.3229 20.6146 85.7708 21.3542 85.1562 21.9375C84.5521 22.5208 83.7604 22.9323 82.7812 23.1719C83.4688 23.3177 84.1719 23.75 84.8906 24.4688C85.6198 25.1875 86.2604 25.9688 86.8125 26.8125L90.7188 33.0312C90.8958 33.3333 90.9844 33.5938 90.9844 33.8125Z" fill="white"/>
</svg>
