<svg width="22" height="23" viewBox="0 0 22 23" fill="none" xmlns="http://www.w3.org/2000/svg">
<path d="M20.9994 16.4201V19.4201C21.0006 19.6986 20.9435 19.9743 20.8319 20.2294C20.7204 20.4846 20.5567 20.7137 20.3515 20.902C20.1463 21.0902 19.904 21.2336 19.6402 21.3228C19.3763 21.412 19.0968 21.4452 18.8194 21.4201C15.7423 21.0857 12.7864 20.0342 10.1894 18.3501C7.77327 16.8148 5.72478 14.7663 4.18944 12.3501C2.49942 9.7413 1.44768 6.77109 1.11944 3.6801C1.09445 3.40356 1.12732 3.12486 1.21594 2.86172C1.30457 2.59859 1.44701 2.35679 1.63421 2.15172C1.8214 1.94665 2.04925 1.78281 2.30323 1.67062C2.55722 1.55843 2.83178 1.50036 3.10944 1.5001H6.10944C6.59475 1.49532 7.06523 1.66718 7.4332 1.98363C7.80117 2.30008 8.04152 2.73954 8.10944 3.2201C8.23606 4.18016 8.47089 5.12282 8.80944 6.0301C8.94399 6.38802 8.9731 6.77701 8.89335 7.15098C8.81359 7.52494 8.6283 7.86821 8.35944 8.1401L7.08944 9.4101C8.513 11.9136 10.5859 13.9865 13.0894 15.4101L14.3594 14.1401C14.6313 13.8712 14.9746 13.6859 15.3485 13.6062C15.7225 13.5264 16.1115 13.5556 16.4694 13.6901C17.3767 14.0286 18.3194 14.2635 19.2794 14.3901C19.7652 14.4586 20.2088 14.7033 20.526 15.0776C20.8431 15.4519 21.0116 15.9297 20.9994 16.4201Z" stroke="white" stroke-width="2" stroke-linecap="round" stroke-linejoin="round"/>
</svg>
